<svg display="none" xmlns="http://www.w3.org/2000/svg">
  <svg id="search-icon" viewBox="0 0 17 16" fill="none" xmlns="http://www.w3.org/2000/svg">
    <path d="M7.29248 12.8877C8.67871 12.8877 9.95703 12.4395 11.0029 11.6924L14.9375 15.627C15.1201 15.8096 15.3608 15.9009 15.6182 15.9009C16.1577 15.9009 16.5396 15.4858 16.5396 14.9546C16.5396 14.7056 16.4565 14.4648 16.2739 14.2905L12.3643 10.3726C13.186 9.29346 13.6758 7.95703 13.6758 6.50439C13.6758 2.99316 10.8037 0.121094 7.29248 0.121094C3.78955 0.121094 0.90918 2.98486 0.90918 6.50439C0.90918 10.0156 3.78125 12.8877 7.29248 12.8877ZM7.29248 11.5098C4.55322 11.5098 2.28711 9.24365 2.28711 6.50439C2.28711 3.76514 4.55322 1.49902 7.29248 1.49902C10.0317 1.49902 12.2979 3.76514 12.2979 6.50439C12.2979 9.24365 10.0317 11.5098 7.29248 11.5098Z" fill="#3C3C43" fill-opacity="0.6" />
  </svg>
  <svg id="comment-icon" viewBox="0 0 24 24" fill="none" xmlns="http://www.w3.org/2000/svg">
    <path fill-rule="evenodd" clip-rule="evenodd" d="M6 21.8042L12.0868 18H20C21.1046 18 22 17.1046 22 16V4C22 2.89543 21.1046 2 20 2H4C2.89543 2 2 2.89543 2 4V16C2 17.1046 2.89543 18 4 18H6V21.8042ZM11.5132 16L8 18.1958V16H4V4H20V16H11.5132Z" fill="black" />
  </svg>
  <svg id="pen-icon" viewBox="0 0 24 24" fill="none" xmlns="http://www.w3.org/2000/svg">
    <path fill-rule="evenodd" clip-rule="evenodd" d="M16.4374 2C17.0921 2 17.7197 2.26142 18.1781 2.72342L21.279 5.82432C21.7407 6.286 22.0001 6.91217 22.0001 7.56508C22.0001 8.21799 21.7407 8.84416 21.279 9.30584L9.95751 20.6238C9.25902 21.4295 8.2689 21.9245 7.1346 22.0023H2V21.0023L2.00325 16.7873C2.08844 15.7328 2.57867 14.7523 3.3265 14.0934L14.6954 2.72463C15.1564 2.26083 15.7834 2 16.4374 2ZM7.06398 20.0048C7.59821 19.967 8.09549 19.7184 8.49479 19.2616L16.0567 11.6997L12.3023 7.94519L4.6961 15.5496C4.29095 15.9079 4.04031 16.4092 4 16.8678V20.0029L7.06398 20.0048ZM13.7167 6.53115L17.4709 10.2855L19.8648 7.89162C19.9514 7.80502 20.0001 7.68756 20.0001 7.56508C20.0001 7.4426 19.9514 7.32514 19.8648 7.23854L16.7611 4.13486C16.6755 4.04855 16.5589 4 16.4374 4C16.3158 4 16.1992 4.04855 16.1136 4.13486L13.7167 6.53115Z" fill="currentColor" />
  </svg>
  <svg id="back-icon" viewBox="0 0 74 18" fill="none" xmlns="http://www.w3.org/2000/svg">
    <path d="M0.494141 8.6543C0.494141 9.02344 0.634766 9.33984 0.933594 9.62988L7.6748 16.2217C7.91211 16.459 8.19336 16.5732 8.52734 16.5732C9.21289 16.5732 9.75781 16.0283 9.75781 15.3516C9.75781 15.0088 9.61719 14.7012 9.37109 14.4639L3.40332 8.64551L9.37109 2.84473C9.62598 2.59863 9.75781 2.29102 9.75781 1.95703C9.75781 1.28027 9.21289 0.735352 8.52734 0.735352C8.19336 0.735352 7.91211 0.849609 7.6748 1.08691L0.933594 7.67871C0.634766 7.96875 0.50293 8.27637 0.494141 8.6543ZM19.0754 15V2.04H20.9564V7.629H27.4364V2.04H29.3264V15H27.4364V9.402H20.9564V15H19.0754ZM35.0997 15.27C34.3797 15.27 33.7767 15.138 33.2907 14.874C32.8047 14.604 32.4357 14.25 32.1837 13.812C31.9377 13.368 31.8147 12.882 31.8147 12.354C31.8147 11.862 31.9017 11.43 32.0757 11.058C32.2497 10.686 32.5077 10.371 32.8497 10.113C33.1917 9.849 33.6117 9.636 34.1097 9.474C34.5417 9.348 35.0307 9.237 35.5767 9.141C36.1227 9.045 36.6957 8.955 37.2957 8.871C37.9017 8.787 38.5017 8.703 39.0957 8.619L38.4117 8.997C38.4237 8.235 38.2617 7.671 37.9257 7.305C37.5957 6.933 37.0257 6.747 36.2157 6.747C35.7057 6.747 35.2377 6.867 34.8117 7.107C34.3857 7.341 34.0887 7.731 33.9207 8.277L32.1657 7.737C32.4057 6.903 32.8617 6.24 33.5337 5.748C34.2117 5.256 35.1117 5.01 36.2337 5.01C37.1037 5.01 37.8597 5.16 38.5017 5.46C39.1497 5.754 39.6237 6.222 39.9237 6.864C40.0797 7.182 40.1757 7.518 40.2117 7.872C40.2477 8.226 40.2657 8.607 40.2657 9.015V15H38.6007V12.777L38.9247 13.065C38.5227 13.809 38.0097 14.364 37.3857 14.73C36.7677 15.09 36.0057 15.27 35.0997 15.27ZM35.4327 13.731C35.9667 13.731 36.4257 13.638 36.8097 13.452C37.1937 13.26 37.5027 13.017 37.7367 12.723C37.9707 12.429 38.1237 12.123 38.1957 11.805C38.2977 11.517 38.3547 11.193 38.3667 10.833C38.3847 10.473 38.3937 10.185 38.3937 9.969L39.0057 10.194C38.4117 10.284 37.8717 10.365 37.3857 10.437C36.8997 10.509 36.4587 10.581 36.0627 10.653C35.6727 10.719 35.3247 10.8 35.0187 10.896C34.7607 10.986 34.5297 11.094 34.3257 11.22C34.1277 11.346 33.9687 11.499 33.8487 11.679C33.7347 11.859 33.6777 12.078 33.6777 12.336C33.6777 12.588 33.7407 12.822 33.8667 13.038C33.9927 13.248 34.1847 13.416 34.4427 13.542C34.7007 13.668 35.0307 13.731 35.4327 13.731ZM46.5678 15.27C45.6258 15.27 44.7798 15.069 44.0298 14.667C43.2858 14.265 42.6978 13.71 42.2658 13.002L43.7598 12.021C44.1078 12.489 44.5098 12.852 44.9658 13.11C45.4278 13.368 45.9468 13.497 46.5228 13.497C47.1228 13.497 47.5968 13.362 47.9448 13.092C48.2988 12.816 48.4758 12.447 48.4758 11.985C48.4758 11.619 48.3738 11.349 48.1698 11.175C47.9718 10.995 47.6958 10.878 47.3418 10.824C46.9938 10.77 46.5978 10.743 46.1538 10.743H45.2898V9.231H46.1538C46.7418 9.231 47.2248 9.15 47.6028 8.988C47.9868 8.82 48.1788 8.505 48.1788 8.043C48.1788 7.593 48.0138 7.269 47.6838 7.071C47.3598 6.873 46.9728 6.774 46.5228 6.774C46.0188 6.774 45.5298 6.882 45.0558 7.098C44.5818 7.308 44.1678 7.569 43.8138 7.881L42.7158 6.594C43.2318 6.096 43.8198 5.709 44.4798 5.433C45.1458 5.151 45.8598 5.01 46.6218 5.01C47.2458 5.01 47.8218 5.121 48.3498 5.343C48.8838 5.559 49.3098 5.88 49.6278 6.306C49.9518 6.732 50.1138 7.257 50.1138 7.881C50.1138 8.367 50.0058 8.811 49.7898 9.213C49.5738 9.615 49.2438 9.981 48.7998 10.311L48.7458 9.672C49.1118 9.786 49.4178 9.969 49.6638 10.221C49.9098 10.473 50.0928 10.77 50.2128 11.112C50.3388 11.448 50.4018 11.805 50.4018 12.183C50.4018 12.837 50.2278 13.395 49.8798 13.857C49.5378 14.319 49.0758 14.67 48.4938 14.91C47.9118 15.15 47.2698 15.27 46.5678 15.27ZM55.629 15.27C54.909 15.27 54.306 15.138 53.82 14.874C53.334 14.604 52.965 14.25 52.713 13.812C52.467 13.368 52.344 12.882 52.344 12.354C52.344 11.862 52.431 11.43 52.605 11.058C52.779 10.686 53.037 10.371 53.379 10.113C53.721 9.849 54.141 9.636 54.639 9.474C55.071 9.348 55.56 9.237 56.106 9.141C56.652 9.045 57.225 8.955 57.825 8.871C58.431 8.787 59.031 8.703 59.625 8.619L58.941 8.997C58.953 8.235 58.791 7.671 58.455 7.305C58.125 6.933 57.555 6.747 56.745 6.747C56.235 6.747 55.767 6.867 55.341 7.107C54.915 7.341 54.618 7.731 54.45 8.277L52.695 7.737C52.935 6.903 53.391 6.24 54.063 5.748C54.741 5.256 55.641 5.01 56.763 5.01C57.633 5.01 58.389 5.16 59.031 5.46C59.679 5.754 60.153 6.222 60.453 6.864C60.609 7.182 60.705 7.518 60.741 7.872C60.777 8.226 60.795 8.607 60.795 9.015V15H59.13V12.777L59.454 13.065C59.052 13.809 58.539 14.364 57.915 14.73C57.297 15.09 56.535 15.27 55.629 15.27ZM55.962 13.731C56.496 13.731 56.955 13.638 57.339 13.452C57.723 13.26 58.032 13.017 58.266 12.723C58.5 12.429 58.653 12.123 58.725 11.805C58.827 11.517 58.884 11.193 58.896 10.833C58.914 10.473 58.923 10.185 58.923 9.969L59.535 10.194C58.941 10.284 58.401 10.365 57.915 10.437C57.429 10.509 56.988 10.581 56.592 10.653C56.202 10.719 55.854 10.8 55.548 10.896C55.29 10.986 55.059 11.094 54.855 11.22C54.657 11.346 54.498 11.499 54.378 11.679C54.264 11.859 54.207 12.078 54.207 12.336C54.207 12.588 54.27 12.822 54.396 13.038C54.522 13.248 54.714 13.416 54.972 13.542C55.23 13.668 55.56 13.731 55.962 13.731ZM62.9121 17.16V13.488C63.4461 13.488 63.8271 13.311 64.0551 12.957C64.2891 12.597 64.4751 11.988 64.6131 11.13C64.6971 10.608 64.7661 10.053 64.8201 9.465C64.8801 8.877 64.9311 8.241 64.9731 7.557C65.0151 6.867 65.0571 6.108 65.0991 5.28H72.0651V13.488H73.0191V17.16H71.2371V15H64.7031V17.16H62.9121ZM65.6031 13.488H70.1751V6.792H66.7731C66.7491 7.188 66.7221 7.596 66.6921 8.016C66.6681 8.436 66.6381 8.853 66.6021 9.267C66.5721 9.681 66.5361 10.077 66.4941 10.455C66.4521 10.833 66.4041 11.175 66.3501 11.481C66.2781 11.955 66.1911 12.351 66.0891 12.669C65.9931 12.987 65.8311 13.26 65.6031 13.488Z" fill="#FF008A" />
  </svg>
  <svg id="prev-icon" viewBox="0 0 24 24" fill="none" xmlns="http://www.w3.org/2000/svg">
    <path d="M16.16 7.41L11.58 12L16.16 16.59L14.75 18L8.75003 12L14.75 6L16.16 7.41Z" fill="#E2E2E2" />
  </svg>
  <svg id="next-icon" viewBox="0 0 24 24" fill="none" xmlns="http://www.w3.org/2000/svg">
    <path d="M7.84003 7.41L12.42 12L7.84003 16.59L9.25003 18L15.25 12L9.25003 6L7.84003 7.41Z" fill="#E2E2E2" />
  </svg>
</svg>
